<?xml version="1.0" standalone="no"?>
<!DOCTYPE svg PUBLIC "-//W3C//DTD SVG 20010904//EN"
 "http://www.w3.org/TR/2001/REC-SVG-20010904/DTD/svg10.dtd">
<svg version="1.0" xmlns="http://www.w3.org/2000/svg"
 width="720.000000pt" height="720.000000pt" viewBox="0 0 720.000000 720.000000"
 preserveAspectRatio="xMidYMid meet">
<metadata>
Created by potrace 1.14, written by Peter Selinger 2001-2017
</metadata>
<g transform="translate(0.000000,720.000000) scale(0.100000,-0.100000)"
fill="#000000" stroke="none">
<path d="M3320 6974 c-318 -27 -461 -49 -676 -104 -269 -69 -568 -191 -814
-331 -386 -219 -821 -613 -1056 -954 -11 -16 -41 -61 -67 -98 -283 -412 -479
-956 -539 -1492 -19 -175 -16 -595 5 -770 87 -699 390 -1359 852 -1854 472
-505 1012 -825 1672 -990 238 -60 420 -82 719 -88 172 -3 314 -1 390 6 794 78
1502 410 2058 967 512 511 832 1147 942 1870 32 209 43 579 25 780 -51 553
-215 1042 -503 1504 -202 323 -487 633 -808 879 -102 77 -159 117 -302 207
-71 45 -283 153 -389 198 -307 131 -623 215 -940 251 -132 15 -481 27 -569 19z"/>
</g>
</svg>
